<?xml version="1.0" encoding="utf-8"?>
<!-- Generator: Adobe Illustrator 21.1.0, SVG Export Plug-In . SVG Version: 6.00 Build 0)  -->
<svg version="1.1" id="Layer_1" xmlns="http://www.w3.org/2000/svg" xmlns:xlink="http://www.w3.org/1999/xlink" x="0px" y="0px"
	 viewBox="0 0 437.2 223.1" style="enable-background:new 0 0 437.2 223.1;" xml:space="preserve">
<style type="text/css">
	.st0{fill:#FF0808;stroke:#FF0000;stroke-miterlimit:10;}
	.st1{fill:#070707;stroke:#FF0000;stroke-width:0.75;stroke-miterlimit:10;}
</style>
<g>
	<polygon class="st0" points="294.7,74.1 299.3,80.4 298.2,88.6 282.8,88.6 280.8,102.5 287.6,102.5 292.2,108.8 290.7,117.4 
		278.6,117.4 276.3,134.6 287.7,134.6 292.2,140.8 290.6,149 265.9,149 261.4,142.7 271.2,82.2 281.4,75.4 	"/>
	<path class="st0" d="M138,142.7l5.5,6.3h8.9l0.7-4.3l4.3,4.3h10.2l0.7-4.2l4.2,4.2h10.2l8.7-61.3c0,0-0.2-10.4-10-13.5l-28.3,4.4
		L138,142.7z"/>
	<path class="st1" d="M138,142.7l8.6-60.8c0,0,0.4-7.8,5.9-7.8c5.5,0,27.8,0,27.8,0s5.3-0.5,4.9,7.9c-0.5,9-8.6,60.7-8.6,60.7h-8.7
		l8.6-60.5h-6.5l-8.4,60.5h-8.7l8.6-60.5l-6.5,0.1l-8.7,60.3H138z"/>
	<path class="st0" d="M189,142.7l5.8,6.3h8.8l0.5-4.8l4.8,4.8h10l7.9-57.5c0,0,2-12.9-9-17l-15.5,0.1L189,142.7z"/>
	<path class="st1" d="M217.2,74.5c-3.6,0-15.1,0.1-15.1,0.1s-4,3-5.2,11.5c-1.2,8.5-7.9,56.6-7.9,56.6h8.4l4.2-30.7l7-2.6l-4.3,33.3
		h8.4l7.8-56.8C220.6,85.9,220.8,74.4,217.2,74.5z M210.2,100.5l-7.2,2.6l2.4-17.8c0.2-1.4,1.3-2.4,2.7-2.4h1.1
		c1.6,0,2.9,1.4,2.7,3.1L210.2,100.5z"/>
	<polygon class="st0" points="257.7,74.1 264.3,78.8 244.6,134.6 250.2,134.6 256.8,139.9 254.5,148.8 228.7,149 224.3,142.7 
		243.5,88.5 237.3,88.6 231.6,82.4 235.4,75.3 	"/>
	<polygon class="st1" points="233.6,74.1 257.7,74.1 236.4,134.6 250.2,134.6 248.3,142.6 224.3,142.7 245.7,82.4 231.6,82.4 	"/>
	<path class="st1" d="M287.7,134.6l-1.6,8.1h-24.6l7.3-57.4c0,0,1.5-10.8,9.2-11c6.9-0.1,16.8-0.1,16.8-0.1l-1.1,8.2h-15.4
		l-2.9,20.2l12.2,0l-1.5,8.6l-12,0l-3.2,23.4H287.7z"/>
</g>
</svg>
